<?xml version="1.0" standalone="no"?>
<!DOCTYPE svg PUBLIC "-//W3C//DTD SVG 20010904//EN"
 "http://www.w3.org/TR/2001/REC-SVG-20010904/DTD/svg10.dtd">
<svg version="1.0" xmlns="http://www.w3.org/2000/svg"
 width="500.000000pt" height="500.000000pt" viewBox="0 0 500.000000 500.000000"
 preserveAspectRatio="xMidYMid meet">

<g transform="translate(0.000000,500.000000) scale(0.100000,-0.100000)"
fill="#000000" stroke="none">
<path d="M2560 3542 c0 -5 -72 -344 -160 -753 -88 -408 -160 -745 -160 -747 0
-2 12 -2 27 0 l28 3 157 730 c86 402 158 739 160 750 2 15 -3 21 -24 23 -16 2
-28 -1 -28 -6z"/>
<path d="M1773 3008 l-212 -213 214 -220 c212 -219 213 -220 234 -201 21 19
20 19 -175 219 l-196 200 197 197 c188 189 195 197 177 213 -10 9 -21 17 -23
17 -2 0 -99 -96 -216 -212z"/>
<path d="M2839 3204 c-11 -13 8 -36 137 -167 82 -84 169 -173 194 -200 l44
-47 -194 -195 c-164 -164 -193 -198 -184 -212 6 -9 15 -18 20 -20 5 -2 106 94
224 212 l215 215 -215 215 c-118 118 -218 215 -221 215 -4 0 -12 -7 -20 -16z"/>
<path d="M3100 1740 c0 -38 -3 -70 -7 -70 -5 0 -17 7 -27 15 -25 19 -79 19
-115 0 -74 -38 -80 -205 -10 -258 32 -23 91 -25 124 -3 30 20 35 20 35 1 0
-10 11 -15 35 -15 l35 0 0 200 0 200 -35 0 -35 0 0 -70z m-28 -117 c33 -37 30
-123 -5 -145 -20 -13 -65 -9 -81 8 -22 21 -21 111 1 136 21 23 65 23 85 1z"/>
<path d="M2315 1789 c-46 -11 -92 -50 -111 -96 -17 -38 -18 -140 -3 -180 25
-66 85 -104 164 -104 64 0 109 21 135 64 l20 32 -23 17 c-27 21 -47 23 -47 4
0 -24 -50 -56 -87 -56 -25 0 -43 8 -64 29 -27 27 -29 35 -29 101 0 66 2 74 29
101 38 38 87 39 129 4 27 -22 34 -24 56 -14 33 15 33 29 -1 62 -23 21 -99 49
-123 46 -3 -1 -23 -5 -45 -10z"/>
<path d="M1380 1600 l0 -190 40 0 40 0 0 69 0 68 63 5 c35 3 75 13 89 22 68
45 62 163 -12 201 -20 10 -59 15 -125 15 l-95 0 0 -190z m181 120 c14 -8 19
-21 19 -50 0 -46 -18 -60 -79 -60 l-41 0 0 60 0 60 41 0 c22 0 49 -5 60 -10z"/>
<path d="M1730 1600 l0 -190 40 0 40 0 0 69 0 68 63 5 c35 3 75 13 89 22 68
45 62 163 -12 201 -20 10 -59 15 -125 15 l-95 0 0 -190z m181 120 c14 -8 19
-21 19 -50 0 -46 -18 -60 -79 -60 l-41 0 0 60 0 60 41 0 c22 0 49 -5 60 -10z"/>
<path d="M2635 1690 c-46 -18 -69 -58 -73 -124 -8 -117 39 -161 167 -157 113
4 149 210 47 272 -32 20 -104 25 -141 9z m107 -67 c24 -22 25 -109 1 -135 -25
-28 -79 -24 -99 7 -21 33 -14 113 12 132 25 18 64 16 86 -4z"/>
<path d="M3315 1690 c-46 -18 -69 -58 -73 -124 -7 -107 39 -158 141 -158 77 0
136 56 87 82 -17 9 -25 8 -39 -4 -27 -24 -87 -21 -105 6 -31 43 -23 48 80 48
l97 0 -5 52 c-7 71 -47 108 -116 107 -26 0 -56 -4 -67 -9z m93 -56 c12 -8 22
-24 22 -35 0 -17 -7 -19 -60 -19 -66 0 -73 8 -35 45 28 29 42 31 73 9z"/>
</g>
</svg>
